<svg width="40" height="40" viewBox="0 0 40 40" fill="none" xmlns="http://www.w3.org/2000/svg">
<path d="M15.9595 27.6262C15.569 28.0167 15.569 28.6499 15.9595 29.0404C16.35 29.4309 16.9832 29.4309 17.3737 29.0404L15.9595 27.6262ZM25 20L25.7071 20.7071C25.8946 20.5195 26 20.2652 26 20C26 19.7347 25.8946 19.4804 25.7071 19.2929L25 20ZM17.3737 10.9595C16.9832 10.569 16.35 10.569 15.9595 10.9595C15.569 11.35 15.569 11.9832 15.9595 12.3737L17.3737 10.9595ZM17.3737 29.0404L25.7071 20.7071L24.2929 19.2929L15.9595 27.6262L17.3737 29.0404ZM25.7071 19.2929L17.3737 10.9595L15.9595 12.3737L24.2929 20.7071L25.7071 19.2929Z" fill="#333333"/>
</svg>
