<svg width="40" height="40" viewBox="0 0 40 40" fill="none" xmlns="http://www.w3.org/2000/svg">
<path d="M24.0404 12.3737C24.431 11.9832 24.431 11.35 24.0404 10.9595C23.6499 10.569 23.0168 10.569 22.6262 10.9595L24.0404 12.3737ZM15 20L14.2929 19.2929C13.9024 19.6834 13.9024 20.3165 14.2929 20.7071L15 20ZM22.6262 29.0404C23.0168 29.4309 23.6499 29.4309 24.0404 29.0404C24.431 28.6499 24.431 28.0167 24.0404 27.6262L22.6262 29.0404ZM22.6262 10.9595L14.2929 19.2929L15.7071 20.7071L24.0404 12.3737L22.6262 10.9595ZM14.2929 20.7071L22.6262 29.0404L24.0404 27.6262L15.7071 19.2929L14.2929 20.7071Z" fill="#333333"/>
</svg>
