<svg width="29" height="29" viewBox="0 0 29 29" fill="none" xmlns="http://www.w3.org/2000/svg">
<path d="M9.66675 14.9583C9.25253 14.9583 8.91675 15.2941 8.91675 15.7083C8.91675 16.1225 9.25253 16.4583 9.66675 16.4583V14.9583ZM16.9167 16.4583C17.331 16.4583 17.6667 16.1225 17.6667 15.7083C17.6667 15.2941 17.331 14.9583 16.9167 14.9583V16.4583ZM9.66675 19.7917C9.25253 19.7917 8.91675 20.1275 8.91675 20.5417C8.91675 20.9559 9.25253 21.2917 9.66675 21.2917V19.7917ZM19.3334 21.2917C19.7476 21.2917 20.0834 20.9559 20.0834 20.5417C20.0834 20.1275 19.7476 19.7917 19.3334 19.7917V21.2917ZM6.04175 25.375H5.29175C5.29175 25.7892 5.62753 26.125 6.04175 26.125V25.375ZM22.9584 25.375V26.125C23.3726 26.125 23.7084 25.7892 23.7084 25.375H22.9584ZM6.04175 3.625V2.875C5.62753 2.875 5.29175 3.21079 5.29175 3.625H6.04175ZM16.9167 3.625L17.4471 3.09467C17.3064 2.95402 17.1157 2.875 16.9167 2.875V3.625ZM22.9584 9.66667H23.7084C23.7084 9.46775 23.6294 9.27699 23.4887 9.13634L22.9584 9.66667ZM9.66675 16.4583H16.9167V14.9583H9.66675V16.4583ZM9.66675 21.2917H19.3334V19.7917H9.66675V21.2917ZM6.04175 26.125H22.9584V24.625H6.04175V26.125ZM5.29175 3.625V25.375H6.79175V3.625H5.29175ZM15.7084 2.875H6.04175V4.375H15.7084V2.875ZM23.7084 25.375V10.875H22.2084V25.375H23.7084ZM15.7084 4.375H16.9167V2.875H15.7084V4.375ZM23.7084 10.875V9.66667H22.2084V10.875H23.7084ZM23.4887 9.13634L17.4471 3.09467L16.3864 4.15533L22.4281 10.197L23.4887 9.13634ZM14.9584 3.625V8.45833H16.4584V3.625H14.9584ZM14.9584 8.45833C14.9584 9.30642 15.3749 10.0917 15.9333 10.6501C16.4917 11.2085 17.277 11.625 18.1251 11.625V10.125C17.7648 10.125 17.3418 9.93733 16.994 9.58946C16.6461 9.2416 16.4584 8.81858 16.4584 8.45833H14.9584ZM18.1251 11.625H22.9584V10.125H18.1251V11.625Z" fill="#949896"/>
</svg>
