<svg width="26" height="26" viewBox="0 0 26 26" fill="none" xmlns="http://www.w3.org/2000/svg">
<path fill-rule="evenodd" clip-rule="evenodd" d="M23.0468 3.66492H20.703V2.10242H19.1405V3.66492H6.6405V2.10242H5.078V3.66492H2.73425L1.953 4.44617V23.1962L2.73425 23.9774H23.0468L23.828 23.1962V4.44617L23.0468 3.66492ZM22.2655 22.4149H3.5155V8.35242H22.2655V22.4149ZM22.2655 6.78992H3.5155V5.22742H22.2655V6.78992ZM6.64082 13.04H5.07832V14.6025H6.64082V13.04ZM5.07832 16.1651H6.64082V17.7276H5.07832V16.1651ZM6.64082 19.2901H5.07832V20.8526H6.64082V19.2901ZM9.76553 13.04H11.328V14.6025H9.76553V13.04ZM11.328 16.1651H9.76553V17.7276H11.328V16.1651ZM9.76553 19.2901H11.328V20.8526H9.76553V19.2901ZM11.328 9.91494H9.76553V11.4774H11.328V9.91494ZM14.4532 13.04H16.0157V14.6025H14.4532V13.04ZM16.0157 16.1651H14.4532V17.7276H16.0157V16.1651ZM14.4532 19.2901H16.0157V20.8526H14.4532V19.2901ZM16.0157 9.91494H14.4532V11.4774H16.0157V9.91494ZM19.1404 13.04H20.7029V14.6025H19.1404V13.04ZM20.7029 16.1651H19.1404V17.7276H20.7029V16.1651ZM19.1404 9.91494H20.7029V11.4774H19.1404V9.91494Z" fill="#333333"/>
</svg>
