<svg width="29" height="29" viewBox="0 0 29 29" fill="none" xmlns="http://www.w3.org/2000/svg">
<path d="M4.22925 4.22925V3.47925C3.81503 3.47925 3.47925 3.81503 3.47925 4.22925H4.22925ZM12.6876 4.22925H13.4376C13.4376 3.81503 13.1018 3.47925 12.6876 3.47925V4.22925ZM12.6876 12.6876V13.4376C13.1018 13.4376 13.4376 13.1018 13.4376 12.6876H12.6876ZM4.22925 12.6876H3.47925C3.47925 13.1018 3.81503 13.4376 4.22925 13.4376V12.6876ZM4.22925 16.3126V15.5626C3.81503 15.5626 3.47925 15.8984 3.47925 16.3126H4.22925ZM12.6876 16.3126H13.4376C13.4376 15.8984 13.1018 15.5626 12.6876 15.5626V16.3126ZM12.6876 24.7709V25.5209C13.1018 25.5209 13.4376 25.1851 13.4376 24.7709H12.6876ZM4.22925 24.7709H3.47925C3.47925 25.1851 3.81503 25.5209 4.22925 25.5209V24.7709ZM16.3126 4.22925V3.47925C15.8984 3.47925 15.5626 3.81503 15.5626 4.22925H16.3126ZM24.7709 4.22925H25.5209C25.5209 3.81503 25.1851 3.47925 24.7709 3.47925V4.22925ZM24.7709 12.6876V13.4376C25.1851 13.4376 25.5209 13.1018 25.5209 12.6876H24.7709ZM16.3126 12.6876H15.5626C15.5626 13.1018 15.8984 13.4376 16.3126 13.4376V12.6876ZM16.3126 16.3126V15.5626C15.8984 15.5626 15.5626 15.8984 15.5626 16.3126H16.3126ZM24.7709 16.3126H25.5209C25.5209 15.8984 25.1851 15.5626 24.7709 15.5626V16.3126ZM24.7709 24.7709V25.5209C25.1851 25.5209 25.5209 25.1851 25.5209 24.7709H24.7709ZM16.3126 24.7709H15.5626C15.5626 25.1851 15.8984 25.5209 16.3126 25.5209V24.7709ZM4.22925 4.97925H12.6876V3.47925H4.22925V4.97925ZM11.9376 4.22925V12.6876H13.4376V4.22925H11.9376ZM12.6876 11.9376H4.22925V13.4376H12.6876V11.9376ZM4.97925 12.6876V4.22925H3.47925V12.6876H4.97925ZM4.22925 17.0626H12.6876V15.5626H4.22925V17.0626ZM11.9376 16.3126V24.7709H13.4376V16.3126H11.9376ZM12.6876 24.0209H4.22925V25.5209H12.6876V24.0209ZM4.97925 24.7709V16.3126H3.47925V24.7709H4.97925ZM16.3126 4.97925H24.7709V3.47925H16.3126V4.97925ZM24.0209 4.22925V12.6876H25.5209V4.22925H24.0209ZM24.7709 11.9376H16.3126V13.4376H24.7709V11.9376ZM17.0626 12.6876V4.22925H15.5626V12.6876H17.0626ZM16.3126 17.0626H24.7709V15.5626H16.3126V17.0626ZM24.0209 16.3126V24.7709H25.5209V16.3126H24.0209ZM24.7709 24.0209H16.3126V25.5209H24.7709V24.0209ZM17.0626 24.7709V16.3126H15.5626V24.7709H17.0626Z" fill="#949896"/>
</svg>
