<svg width="29" height="29" fill="none" xmlns="http://www.w3.org/2000/svg"><path d="M4.23 4.23v-.75a.75.75 0 0 0-.75.75h.75Zm8.458 0h.75a.75.75 0 0 0-.75-.75v.75Zm0 8.458v.75a.75.75 0 0 0 .75-.75h-.75Zm-8.459 0h-.75c0 .414.336.75.75.75v-.75Zm0 3.625v-.75a.75.75 0 0 0-.75.75h.75Zm8.459 0h.75a.75.75 0 0 0-.75-.75v.75Zm0 8.458v.75a.75.75 0 0 0 .75-.75h-.75Zm-8.459 0h-.75c0 .414.336.75.75.75v-.75ZM16.313 4.229v-.75a.75.75 0 0 0-.75.75h.75Zm8.458 0h.75a.75.75 0 0 0-.75-.75v.75Zm0 8.459v.75a.75.75 0 0 0 .75-.75h-.75Zm-8.458 0h-.75c0 .414.335.75.75.75v-.75Zm0 3.625v-.75a.75.75 0 0 0-.75.75h.75Zm8.458 0h.75a.75.75 0 0 0-.75-.75v.75Zm0 8.458v.75a.75.75 0 0 0 .75-.75h-.75Zm-8.458 0h-.75c0 .414.335.75.75.75v-.75ZM4.229 4.979h8.459v-1.5H4.229v1.5Zm7.709-.75v8.459h1.5V4.229h-1.5Zm.75 7.709H4.229v1.5h8.459v-1.5Zm-7.709.75V4.229h-1.5v8.459h1.5Zm-.75 4.375h8.459v-1.5H4.229v1.5Zm7.709-.75v8.458h1.5v-8.458h-1.5Zm.75 7.708H4.229v1.5h8.459v-1.5Zm-7.709.75v-8.458h-1.5v8.458h1.5ZM16.313 4.979h8.458v-1.5h-8.458v1.5Zm7.708-.75v8.459h1.5V4.229h-1.5Zm.75 7.709h-8.458v1.5h8.458v-1.5Zm-7.708.75V4.229h-1.5v8.459h1.5Zm-.75 4.375h8.458v-1.5h-8.458v1.5Zm7.708-.75v8.458h1.5v-8.458h-1.5Zm.75 7.708h-8.458v1.5h8.458v-1.5Zm-7.708.75v-8.458h-1.5v8.458h1.5Z" fill="#949896"/></svg>