<svg width="201" height="59" viewBox="0 0 201 59" fill="none" xmlns="http://www.w3.org/2000/svg">
<path d="M39.25 47.5C37.1167 47.5 35.2 47.15 33.5 46.45C31.8 45.7167 30.35 44.7167 29.15 43.45C27.95 42.15 27.0167 40.6833 26.35 39.05C25.7167 37.4167 25.4 35.7 25.4 33.9C25.4 31.4333 25.95 29.1833 27.05 27.15C28.1833 25.0833 29.7833 23.4333 31.85 22.2C33.9167 20.9667 36.3667 20.35 39.2 20.35C42.0333 20.35 44.4667 20.9667 46.5 22.2C48.5333 23.4333 50.05 25.05 51.05 27.05L44.5 29.05C43.9333 28.0833 43.1833 27.35 42.25 26.85C41.3167 26.3167 40.2833 26.05 39.15 26.05C37.8833 26.05 36.7167 26.3833 35.65 27.05C34.6167 27.6833 33.8 28.6 33.2 29.8C32.6 30.9667 32.3 32.3333 32.3 33.9C32.3 35.4333 32.6 36.8 33.2 38C33.8333 39.1667 34.6667 40.1 35.7 40.8C36.7333 41.4667 37.8833 41.8 39.15 41.8C39.95 41.8 40.7 41.6667 41.4 41.4C42.1333 41.1333 42.7833 40.7667 43.35 40.3C43.9167 39.8333 44.3333 39.3 44.6 38.7L51.15 40.7C50.55 42 49.6667 43.1667 48.5 44.2C47.3667 45.2333 46.0167 46.05 44.45 46.65C42.9167 47.2167 41.1833 47.5 39.25 47.5ZM76.8727 26.6C74.8393 26.6 73.0227 27 71.4227 27.8C69.8227 28.5667 68.6727 29.6833 67.9727 31.15V47H61.2727V20.8H67.4227V26.4C68.356 24.6 69.5393 23.1833 70.9727 22.15C72.406 21.1167 73.9227 20.55 75.5227 20.45C75.8893 20.45 76.1727 20.45 76.3727 20.45C76.5727 20.45 76.7393 20.4667 76.8727 20.5V26.6ZM98.4168 47.5C96.3168 47.5 94.4168 47.15 92.7168 46.45C91.0168 45.7167 89.5668 44.7333 88.3668 43.5C87.1668 42.2333 86.2335 40.8 85.5668 39.2C84.9335 37.5667 84.6168 35.85 84.6168 34.05C84.6168 31.55 85.1668 29.2667 86.2668 27.2C87.4001 25.1333 89.0001 23.4833 91.0668 22.25C93.1668 20.9833 95.6335 20.35 98.4668 20.35C101.333 20.35 103.783 20.9833 105.817 22.25C107.85 23.4833 109.4 25.1333 110.467 27.2C111.567 29.2333 112.117 31.4333 112.117 33.8C112.117 34.2 112.1 34.6167 112.067 35.05C112.033 35.45 112 35.7833 111.967 36.05H91.7168C91.8501 37.3833 92.2335 38.55 92.8668 39.55C93.5335 40.55 94.3668 41.3167 95.3668 41.85C96.4001 42.35 97.5001 42.6 98.6668 42.6C100 42.6 101.25 42.2833 102.417 41.65C103.617 40.9833 104.433 40.1167 104.867 39.05L110.617 40.65C109.983 41.9833 109.067 43.1667 107.867 44.2C106.7 45.2333 105.317 46.05 103.717 46.65C102.117 47.2167 100.35 47.5 98.4168 47.5ZM91.5668 31.8H105.267C105.133 30.4667 104.75 29.3167 104.117 28.35C103.517 27.35 102.717 26.5833 101.717 26.05C100.717 25.4833 99.6001 25.2 98.3668 25.2C97.1668 25.2 96.0668 25.4833 95.0668 26.05C94.1001 26.5833 93.3001 27.35 92.6668 28.35C92.0668 29.3167 91.7001 30.4667 91.5668 31.8ZM120.398 39.25C120.398 37.55 120.865 36.0667 121.798 34.8C122.765 33.5 124.098 32.5 125.798 31.8C127.498 31.1 129.448 30.75 131.648 30.75C132.748 30.75 133.865 30.8333 134.998 31C136.132 31.1667 137.115 31.4333 137.948 31.8V30.4C137.948 28.7333 137.448 27.45 136.448 26.55C135.482 25.65 134.032 25.2 132.098 25.2C130.665 25.2 129.298 25.45 127.998 25.95C126.698 26.45 125.332 27.1833 123.898 28.15L121.748 23.75C123.482 22.6167 125.248 21.7667 127.048 21.2C128.882 20.6333 130.798 20.35 132.798 20.35C136.532 20.35 139.432 21.2833 141.498 23.15C143.598 25.0167 144.648 27.6833 144.648 31.15V39.5C144.648 40.2 144.765 40.7 144.998 41C145.265 41.3 145.682 41.4833 146.248 41.55V47C145.648 47.1 145.098 47.1833 144.598 47.25C144.132 47.3167 143.732 47.35 143.398 47.35C142.065 47.35 141.048 47.05 140.348 46.45C139.682 45.85 139.265 45.1167 139.098 44.25L138.948 42.9C137.815 44.3667 136.398 45.5 134.698 46.3C132.998 47.1 131.265 47.5 129.498 47.5C127.765 47.5 126.198 47.15 124.798 46.45C123.432 45.7167 122.348 44.7333 121.548 43.5C120.782 42.2333 120.398 40.8167 120.398 39.25ZM136.698 40.6C137.065 40.2 137.365 39.8 137.598 39.4C137.832 39 137.948 38.6333 137.948 38.3V35.65C137.148 35.3167 136.282 35.0667 135.348 34.9C134.415 34.7 133.532 34.6 132.698 34.6C130.965 34.6 129.532 34.9833 128.398 35.75C127.298 36.4833 126.748 37.4667 126.748 38.7C126.748 39.3667 126.932 40 127.298 40.6C127.665 41.2 128.198 41.6833 128.898 42.05C129.598 42.4167 130.432 42.6 131.398 42.6C132.398 42.6 133.382 42.4167 134.348 42.05C135.315 41.65 136.098 41.1667 136.698 40.6ZM197.609 47H190.909V32.3C190.909 30.2333 190.543 28.7167 189.809 27.75C189.109 26.75 188.126 26.25 186.859 26.25C185.559 26.25 184.309 26.7667 183.109 27.8C181.943 28.8 181.109 30.1167 180.609 31.75V47H173.909V32.3C173.909 30.2 173.543 28.6667 172.809 27.7C172.109 26.7333 171.126 26.25 169.859 26.25C168.559 26.25 167.309 26.75 166.109 27.75C164.943 28.75 164.109 30.0667 163.609 31.7V47H156.909V20.8H162.959V25.65C163.959 23.95 165.293 22.65 166.959 21.75C168.626 20.8167 170.543 20.35 172.709 20.35C174.876 20.35 176.559 20.8833 177.759 21.95C178.993 23.0167 179.776 24.3333 180.109 25.9C181.176 24.1 182.526 22.7333 184.159 21.8C185.826 20.8333 187.693 20.35 189.759 20.35C191.393 20.35 192.709 20.65 193.709 21.25C194.743 21.8167 195.543 22.6 196.109 23.6C196.676 24.5667 197.059 25.6667 197.259 26.9C197.493 28.1333 197.609 29.3833 197.609 30.65V47Z" fill="white"/>
<circle cx="6" cy="27" r="6" fill="white"/>
</svg>
