<svg width="29" height="29" viewBox="0 0 29 29" fill="none" xmlns="http://www.w3.org/2000/svg">
<path d="M10.875 18.5833C10.4608 18.5833 10.125 18.9191 10.125 19.3333C10.125 19.7475 10.4608 20.0833 10.875 20.0833V18.5833ZM18.125 10.4167C18.5392 10.4167 18.875 10.0809 18.875 9.66667C18.875 9.25245 18.5392 8.91667 18.125 8.91667V10.4167ZM13.75 21.75C13.75 22.1642 14.0858 22.5 14.5 22.5C14.9142 22.5 15.25 22.1642 15.25 21.75H13.75ZM15.25 7.25C15.25 6.83579 14.9142 6.5 14.5 6.5C14.0858 6.5 13.75 6.83579 13.75 7.25H15.25ZM24.625 14.5C24.625 20.0919 20.0919 24.625 14.5 24.625V26.125C20.9203 26.125 26.125 20.9203 26.125 14.5H24.625ZM14.5 24.625C8.90812 24.625 4.375 20.0919 4.375 14.5H2.875C2.875 20.9203 8.07969 26.125 14.5 26.125V24.625ZM4.375 14.5C4.375 8.90812 8.90812 4.375 14.5 4.375V2.875C8.07969 2.875 2.875 8.07969 2.875 14.5H4.375ZM14.5 4.375C20.0919 4.375 24.625 8.90812 24.625 14.5H26.125C26.125 8.07969 20.9203 2.875 14.5 2.875V4.375ZM13.2917 8.91667C12.7689 8.91667 12.0014 9.06734 11.343 9.54135C10.6464 10.0429 10.125 10.8722 10.125 12.0833H11.625C11.625 11.3611 11.9091 10.9821 12.2195 10.7587C12.5681 10.5077 13.0089 10.4167 13.2917 10.4167V8.91667ZM10.125 12.0833C10.125 13.2944 10.6464 14.1238 11.343 14.6253C12.0014 15.0993 12.7689 15.25 13.2917 15.25V13.75C13.0089 13.75 12.5681 13.659 12.2195 13.408C11.9091 13.1846 11.625 12.8056 11.625 12.0833H10.125ZM13.2917 15.25H15.7083V13.75H13.2917V15.25ZM15.7083 15.25C15.9911 15.25 16.4319 15.341 16.7805 15.592C17.0909 15.8154 17.375 16.1944 17.375 16.9167H18.875C18.875 15.7056 18.3536 14.8762 17.657 14.3747C16.9986 13.9007 16.2311 13.75 15.7083 13.75V15.25ZM17.375 16.9167C17.375 17.6389 17.0909 18.0179 16.7805 18.2413C16.4319 18.4923 15.9911 18.5833 15.7083 18.5833V20.0833C16.2311 20.0833 16.9986 19.9327 17.657 19.4587C18.3536 18.9571 18.875 18.1278 18.875 16.9167H17.375ZM15.7083 18.5833H14.5V20.0833H15.7083V18.5833ZM14.5 18.5833H10.875V20.0833H14.5V18.5833ZM18.125 8.91667H14.5V10.4167H18.125V8.91667ZM14.5 8.91667H13.2917V10.4167H14.5V8.91667ZM13.75 19.3333V21.75H15.25V19.3333H13.75ZM15.25 9.66667V7.25H13.75V9.66667H15.25Z" fill="#949896"/>
</svg>
